<?xml version="1.0" encoding="UTF-8"?>
<!-- Created with Inkscape (http://www.inkscape.org/) -->
<svg width="183.07mm" height="114.72mm" version="1.1" viewBox="0 0 691.91 433.6" xml:space="preserve" xmlns="http://www.w3.org/2000/svg"><defs><clipPath id="clipPath2326"><path d="m-221.55-65.35h368v209h-368z"/></clipPath><clipPath id="clipPath2330"><path d="m-221.54-107.04h368v209h-368z"/></clipPath><clipPath id="clipPath2338"><path d="m-329.09-89.086h368v209h-368z"/></clipPath><clipPath id="clipPath2342"><path d="m-331.73-69.09h368v209h-368z"/></clipPath><clipPath id="clipPath2346"><path d="m-325.99-65.35h368v209h-368z"/></clipPath><clipPath id="clipPath2350"><path d="m-325.99-107.04h368v209h-368z"/></clipPath><clipPath id="clipPath2354"><path d="m48.441 380.61h368v209h-368z"/></clipPath><clipPath id="clipPath2362"><path d="m-129.52-77.076h368v209h-368z"/></clipPath><clipPath id="clipPath2366"><path d="m-126.88-97.286h368v209h-368z"/></clipPath><clipPath id="clipPath2370"><path d="m-121.19-65.35h368v209h-368z"/></clipPath><clipPath id="clipPath2374"><path d="m-121.19-107.04h368v209h-368z"/></clipPath><clipPath id="clipPath2386"><path d="m-273.46-118.66h368v209h-368z"/></clipPath><clipPath id="clipPath2390"><path d="m-270.83-138.87h368v209h-368z"/></clipPath><clipPath id="clipPath2394"><path d="m-265.1-107.04h368v209h-368z"/></clipPath><clipPath id="clipPath2398"><path d="m-265.1-148.51h368v209h-368z"/></clipPath><clipPath id="clipPath2406"><path d="m-166-107.04h368v209h-368z"/></clipPath><clipPath id="clipPath2410"><path d="m-166.04-148.51h368v209h-368z"/></clipPath><clipPath id="clipPath2418"><path d="m-45.911-139.38h368v209h-368z"/></clipPath><clipPath id="clipPath2422"><path d="m-48.546-119.13h368v209h-368z"/></clipPath><clipPath id="clipPath2426"><path d="m-42.861-112.44h368v209h-368z"/></clipPath><clipPath id="clipPath2430"><path d="m-42.861-153.91h368v209h-368z"/></clipPath><clipPath id="clipPath2438"><path d="m-367.55-174.1h368v209h-368z"/></clipPath><clipPath id="clipPath2442"><path d="m-341.49-181.14h368v209h-368z"/></clipPath><clipPath id="clipPath2446"><path d="m-311.65-174.1h368v209h-368z"/></clipPath><clipPath id="clipPath2450"><path d="m-281.75-178.21h368v209h-368z"/></clipPath><clipPath id="clipPath2454"><path d="m-255.75-174.1h368v209h-368z"/></clipPath><clipPath id="clipPath2458"><path d="m-228.3-178.07h368v209h-368z"/></clipPath><clipPath id="clipPath2462"><path d="m-199.85-174.1h368v209h-368z"/></clipPath><clipPath id="clipPath2466"><path d="m-170.32-178.48h368v209h-368z"/></clipPath><clipPath id="clipPath2470"><path d="m-143.94-174.1h368v209h-368z"/></clipPath><clipPath id="clipPath2474"><path d="m-117.88-177.41h368v209h-368z"/></clipPath><clipPath id="clipPath2478"><path d="m-32.138-174.1h368v209h-368z"/></clipPath><clipPath id="clipPath2482"><path d="m-362.28-199.24h368v209h-368z"/></clipPath><clipPath id="clipPath2486"><path d="m-32.744-196.6h368v209h-368z"/></clipPath><clipPath id="clipPath2490"><path d="m-13.315-104.04h368v209h-368z"/></clipPath><clipPath id="clipPath2494"><path d="m-59.073-180.98h368v209h-368z"/></clipPath></defs><g transform="matrix(1.3471 0 0 1.3471 -164.41 -49.817)"><g fill="#777"><g transform="matrix(1.3333 0 0 -1.3333 215.69 130.78)" clip-path="url(#clipPath2494)"><path d="m0 0h1.28v-4.208h0.752v5.6h-0.528c-0.08-0.608-0.664-1-1.336-1h-0.168z" fill="#777"/></g><g transform="matrix(1.3333 0 0 -1.3333 154.68 233.37)" clip-path="url(#clipPath2490)"><path d="m0 0c0.024-0.744 0.592-1.368 1.8-1.368 0.184 0 1.672 0.032 1.672 1.312 0 0.832-0.616 1-1.448 1.184-0.584 0.128-1.12 0.176-1.12 0.752 0 0.648 0.752 0.64 0.84 0.64 0.808 0 0.936-0.496 0.952-0.728h0.672c-0.032 0.44-0.264 1.224-1.648 1.224-0.736 0-1.544-0.264-1.544-1.168 0-0.848 0.592-1.032 1.28-1.184 0.144-0.032 0.288-0.064 0.432-0.096 0.8-0.184 0.856-0.408 0.856-0.672 0-0.168 8e-3 -0.768-0.936-0.768-0.528 0-1.088 0.224-1.104 0.872zm7.768-1.208v4.064h-0.704v-2.216c0-0.288 0.016-1.512-1.168-1.512-0.504 0-0.856 0.216-0.856 1.24v2.488h-0.704v-2.696c0-0.608 0.136-1.528 1.336-1.528 0.144 0 0.968 0.024 1.376 0.736h0.016v-0.576zm1.152 4.064v-4.064h0.704v2.424c0 0.8 0.488 1.304 1.072 1.304 0.632 0 0.784-0.568 0.784-1.16v-2.568h0.704v2.424c0 1.048 0.6 1.304 1.072 1.304 0.728 0 0.784-0.72 0.784-1.152v-2.576h0.704v2.624c0 0.448-0.064 1.6-1.304 1.6-0.848 0-1.248-0.56-1.408-0.872-0.112 0.432-0.456 0.872-1.16 0.872-0.512 0-1.04-0.296-1.256-0.76l8e-3 0.048v0.552z" fill="#777"/></g><g transform="matrix(1.3333 0 0 -1.3333 180.58 109.95)" clip-path="url(#clipPath2486)"><path d="m0 0h329.95" fill="#777" stroke="#777" stroke-width=".5"/></g><g transform="matrix(1.3333 0 0 -1.3333 619.96 106.44)" clip-path="url(#clipPath2482)"><path d="m0 0 4.79-2.635-4.79-2.635z" fill="#777" fill-rule="evenodd"/></g></g><g transform="matrix(1.3333 0 0 -1.3333 179.78 139.95)" clip-path="url(#clipPath2478)"><path d="m0 0v-138.5m55.903 138.5v-138.5" fill="none" stroke="#777" stroke-width=".5"/></g><g transform="matrix(1.3333 0 0 -1.3333 294.1 135.55)" clip-path="url(#clipPath2474)" fill="#777"><path d="m0 0h-2.96c0.104 0.408 0.416 0.744 1.176 1.224 1.304 0.832 1.8 1.168 1.8 2.216 0 1.072-0.728 1.696-1.872 1.696-1.704 0-1.92-1.28-1.92-1.784v-0.168h0.736v0.208c0 0.664 0.448 1.112 1.16 1.112 0.672 0 1.128-0.376 1.128-1.072 0-0.856-0.68-1.216-1.144-1.512-1.088-0.688-1.904-1.2-1.896-2.552h3.792z" fill="#777"/></g><g transform="matrix(1.3333 0 0 -1.3333 328.85 139.95)" clip-path="url(#clipPath2470)"><path d="m0 0v-138.5" fill="none" stroke="#777" stroke-width=".5"/></g><g transform="matrix(1.3333 0 0 -1.3333 364.01 134.12)" clip-path="url(#clipPath2466)" fill="#777"><path d="m0 0c0.024-0.752 0.328-1.872 1.96-1.872 1.112 0 1.928 0.632 1.928 1.728 0 0.848-0.512 1.336-1.08 1.416v0.016c0.536 0.152 0.92 0.624 0.92 1.24 0 0.44-0.216 1.536-1.776 1.536-1.712 0-1.816-1.384-1.808-1.872h0.696c-8e-3 1.232 0.824 1.272 1.088 1.272 0.88 0 1.104-0.528 1.104-0.968 0-0.96-0.984-0.968-1.224-0.968h-0.224v-0.608h0.576c0.624 0 1.024-0.392 1.024-1.008 0-0.36-0.112-1.184-1.272-1.184-0.984 0-1.128 0.824-1.168 1.088-8e-3 0.064-0.016 0.12-0.024 0.184z" fill="#777"/></g><g transform="matrix(1.3333 0 0 -1.3333 403.39 139.95)" clip-path="url(#clipPath2462)"><path d="m0 0v-138.5" fill="none" stroke="#777" stroke-width=".5"/></g><g transform="matrix(1.3333 0 0 -1.3333 441.33 134.66)" clip-path="url(#clipPath2458)" fill="#777"><path d="m0 0v-1.296h0.752v1.296h0.88v0.632h-0.88v3.672h-0.76l-2.632-3.672v-0.632zm-1.92 0.632 1.92 2.688v-2.688z" fill="#777"/></g><g transform="matrix(1.3333 0 0 -1.3333 477.92 139.95)" clip-path="url(#clipPath2454)"><path d="m0 0v-138.5" fill="none" stroke="#777" stroke-width=".5"/></g><g transform="matrix(1.3333 0 0 -1.3333 512.59 134.48)" clip-path="url(#clipPath2450)" fill="#777"><path d="m0 0c0.064-0.632 0.44-1.6 1.888-1.6 1.392 0 2.008 0.872 2.008 1.992 0 1.192-0.72 1.912-1.752 1.912-0.512 0-0.912-0.12-1.264-0.424l0.224 1.656h2.472v0.632h-3.024l-0.392-2.952h0.704c0.192 0.32 0.728 0.488 1.096 0.488 0.608 0 1.232-0.328 1.232-1.32 0-1.312-0.928-1.384-1.304-1.384-0.864 0-1.104 0.632-1.152 1z" fill="#777"/></g><g transform="matrix(1.3333 0 0 -1.3333 552.46 139.95)" clip-path="url(#clipPath2446)"><path d="m0 0v-138.5" fill="none" stroke="#777" stroke-width=".5"/></g><g transform="matrix(1.3333 0 0 -1.3333 592.24 130.57)" clip-path="url(#clipPath2442)" fill="#777"><path d="m0 0c-0.24 1.36-1.424 1.4-1.736 1.4-0.496 0-2.112-0.048-2.112-3.04 0-2.248 0.776-2.896 2.008-2.896 1.216 0 1.92 0.816 1.92 1.976 0 1.192-0.776 1.88-1.8 1.88-0.512 0-1.04-0.16-1.368-0.592h-0.016c-8e-3 0.88 0.192 2.072 1.36 2.072 0.224 0 0.888-8e-3 1.072-0.8zm-3.056-2.576c0 0.768 0.448 1.296 1.232 1.296 0.792 0 1.184-0.584 1.184-1.272 0-0.704-0.344-1.384-1.168-1.384-0.856 0-1.248 0.664-1.248 1.36" fill="#777"/></g><g transform="matrix(1.3333 0 0 -1.3333 627 139.95)" clip-path="url(#clipPath2438)"><path d="m0 0v-138.5" fill="none" stroke="#777" stroke-width=".5"/></g><g transform="matrix(1.3333 0 0 -1.3333 194.07 166.88)" clip-path="url(#clipPath2430)" fill="#777"><path d="m0 0h1.28v-4.208h0.752v5.6h-0.528c-0.08-0.608-0.664-1-1.336-1h-0.168zm5.92-4.376c0.416 0 1.96 0.096 1.96 2.968s-1.544 2.968-1.96 2.968-1.96-0.096-1.96-2.968 1.544-2.968 1.96-2.968m0 0.632c-0.904 0-1.216 1.064-1.216 2.336s0.312 2.336 1.216 2.336 1.216-1.064 1.216-2.336-0.312-2.336-1.216-2.336m4.64-0.632c0.416 0 1.96 0.096 1.96 2.968s-1.544 2.968-1.96 2.968-1.96-0.096-1.96-2.968 1.544-2.968 1.96-2.968m0 0.632c-0.904 0-1.216 1.064-1.216 2.336s0.312 2.336 1.216 2.336 1.216-1.064 1.216-2.336-0.312-2.336-1.216-2.336" fill="#777"/></g><g transform="matrix(1.3333 0 0 -1.3333 194.07 222.18)" clip-path="url(#clipPath2426)" fill="#777"><path d="m0 0h1.28v-4.208h0.752v5.6h-0.528c-0.08-0.608-0.664-1-1.336-1h-0.168zm5.92-4.376c0.416 0 1.96 0.096 1.96 2.968s-1.544 2.968-1.96 2.968-1.96-0.096-1.96-2.968 1.544-2.968 1.96-2.968m0 0.632c-0.904 0-1.216 1.064-1.216 2.336s0.312 2.336 1.216 2.336 1.216-1.064 1.216-2.336-0.312-2.336-1.216-2.336m4.64-0.632c0.416 0 1.96 0.096 1.96 2.968s-1.544 2.968-1.96 2.968-1.96-0.096-1.96-2.968 1.544-2.968 1.96-2.968m0 0.632c-0.904 0-1.216 1.064-1.216 2.336s0.312 2.336 1.216 2.336 1.216-1.064 1.216-2.336-0.312-2.336-1.216-2.336" fill="#777"/></g><g transform="matrix(1.3333 0 0 -1.3333 201.65 213.24)" clip-path="url(#clipPath2422)"><path d="m0 0v20.659" fill="none" stroke="#777" stroke-width=".5"/></g><g fill="#777"><g transform="matrix(1.3333 0 0 -1.3333 198.14 186.25)" clip-path="url(#clipPath2418)"><path d="M 0,0 2.635,4.79 5.27,0 Z" fill="#777" fill-rule="evenodd"/></g><g transform="matrix(1.3333 0 0 -1.3333 358.31 174.08)" clip-path="url(#clipPath2410)"><path d="m0 0h1.28v-4.208h0.752v5.6h-0.528c-0.08-0.608-0.664-1-1.336-1h-0.168zm5.92-4.376c0.416 0 1.96 0.096 1.96 2.968s-1.544 2.968-1.96 2.968-1.96-0.096-1.96-2.968 1.544-2.968 1.96-2.968m0 0.632c-0.904 0-1.216 1.064-1.216 2.336s0.312 2.336 1.216 2.336 1.216-1.064 1.216-2.336-0.312-2.336-1.216-2.336m2.64 1.24c0.024-0.752 0.328-1.872 1.96-1.872 1.112 0 1.928 0.632 1.928 1.728 0 0.848-0.512 1.336-1.08 1.416v0.016c0.536 0.152 0.92 0.624 0.92 1.24 0 0.44-0.216 1.536-1.776 1.536-1.712 0-1.816-1.384-1.808-1.872h0.696c-8e-3 1.232 0.824 1.272 1.088 1.272 0.88 0 1.104-0.528 1.104-0.968 0-0.96-0.984-0.968-1.224-0.968h-0.224v-0.608h0.576c0.624 0 1.024-0.392 1.024-1.008 0-0.36-0.112-1.184-1.272-1.184-0.984 0-1.128 0.824-1.168 1.088-8e-3 0.064-0.016 0.12-0.024 0.184z" fill="#777"/></g><g transform="matrix(1.3333 0 0 -1.3333 358.26 229.37)" clip-path="url(#clipPath2406)"><path d="m0 0h1.28v-4.208h0.752v5.6h-0.528c-0.08-0.608-0.664-1-1.336-1h-0.168zm5.92-4.376c0.416 0 1.96 0.096 1.96 2.968s-1.544 2.968-1.96 2.968-1.96-0.096-1.96-2.968 1.544-2.968 1.96-2.968m0 0.632c-0.904 0-1.216 1.064-1.216 2.336s0.312 2.336 1.216 2.336 1.216-1.064 1.216-2.336-0.312-2.336-1.216-2.336m4.64-0.632c0.416 0 1.96 0.096 1.96 2.968s-1.544 2.968-1.96 2.968-1.96-0.096-1.96-2.968 1.544-2.968 1.96-2.968m0 0.632c-0.904 0-1.216 1.064-1.216 2.336s0.312 2.336 1.216 2.336 1.216-1.064 1.216-2.336-0.312-2.336-1.216-2.336" fill="#777"/></g><g transform="matrix(1.3333 0 0 -1.3333 490.4 174.08)" clip-path="url(#clipPath2398)"><path d="m0 0h1.28v-4.208h0.752v5.6h-0.528c-0.08-0.608-0.664-1-1.336-1h-0.168zm5.92-4.376c0.416 0 1.96 0.096 1.96 2.968s-1.544 2.968-1.96 2.968-1.96-0.096-1.96-2.968 1.544-2.968 1.96-2.968m0 0.632c-0.904 0-1.216 1.064-1.216 2.336s0.312 2.336 1.216 2.336 1.216-1.064 1.216-2.336-0.312-2.336-1.216-2.336m2.64 1.24c0.024-0.752 0.328-1.872 1.96-1.872 1.112 0 1.928 0.632 1.928 1.728 0 0.848-0.512 1.336-1.08 1.416v0.016c0.536 0.152 0.92 0.624 0.92 1.24 0 0.44-0.216 1.536-1.776 1.536-1.712 0-1.816-1.384-1.808-1.872h0.696c-8e-3 1.232 0.824 1.272 1.088 1.272 0.88 0 1.104-0.528 1.104-0.968 0-0.96-0.984-0.968-1.224-0.968h-0.224v-0.608h0.576c0.624 0 1.024-0.392 1.024-1.008 0-0.36-0.112-1.184-1.272-1.184-0.984 0-1.128 0.824-1.168 1.088-8e-3 0.064-0.016 0.12-0.024 0.184z" fill="#777"/></g><g transform="matrix(1.3333 0 0 -1.3333 490.4 229.37)" clip-path="url(#clipPath2394)"><path d="m0 0h1.28v-4.208h0.752v5.6h-0.528c-0.08-0.608-0.664-1-1.336-1h-0.168zm5.92-4.376c0.416 0 1.96 0.096 1.96 2.968s-1.544 2.968-1.96 2.968-1.96-0.096-1.96-2.968 1.544-2.968 1.96-2.968m0 0.632c-0.904 0-1.216 1.064-1.216 2.336s0.312 2.336 1.216 2.336 1.216-1.064 1.216-2.336-0.312-2.336-1.216-2.336m2.64 1.24c0.024-0.752 0.328-1.872 1.96-1.872 1.112 0 1.928 0.632 1.928 1.728 0 0.848-0.512 1.336-1.08 1.416v0.016c0.536 0.152 0.92 0.624 0.92 1.24 0 0.44-0.216 1.536-1.776 1.536-1.712 0-1.816-1.384-1.808-1.872h0.696c-8e-3 1.232 0.824 1.272 1.088 1.272 0.88 0 1.104-0.528 1.104-0.968 0-0.96-0.984-0.968-1.224-0.968h-0.224v-0.608h0.576c0.624 0 1.024-0.392 1.024-1.008 0-0.36-0.112-1.184-1.272-1.184-0.984 0-1.128 0.824-1.168 1.088-8e-3 0.064-0.016 0.12-0.024 0.184z" fill="#777"/></g></g><g transform="matrix(1.3333 0 0 -1.3333 498.03 186.94)" clip-path="url(#clipPath2390)" stroke="#777"><path d="m0 0v-20.625" fill="none" stroke="#777" stroke-width=".5"/></g><g fill="#777"><g transform="matrix(1.3333 0 0 -1.3333 501.55 213.88)" clip-path="url(#clipPath2386)"><path d="m0 0-2.635-4.79-2.635 4.79z" fill="#777" fill-rule="evenodd"/></g><g transform="matrix(1.3333 0 0 -1.3333 298.51 229.37)" clip-path="url(#clipPath2374)"><path d="m0 0h1.28v-4.208h0.752v5.6h-0.528c-0.08-0.608-0.664-1-1.336-1h-0.168zm5.92-4.376c0.416 0 1.96 0.096 1.96 2.968s-1.544 2.968-1.96 2.968-1.96-0.096-1.96-2.968 1.544-2.968 1.96-2.968m0 0.632c-0.904 0-1.216 1.064-1.216 2.336s0.312 2.336 1.216 2.336 1.216-1.064 1.216-2.336-0.312-2.336-1.216-2.336m4.64-0.632c0.416 0 1.96 0.096 1.96 2.968s-1.544 2.968-1.96 2.968-1.96-0.096-1.96-2.968 1.544-2.968 1.96-2.968m0 0.632c-0.904 0-1.216 1.064-1.216 2.336s0.312 2.336 1.216 2.336 1.216-1.064 1.216-2.336-0.312-2.336-1.216-2.336" fill="#777"/></g><g transform="matrix(1.3333 0 0 -1.3333 298.51 284.96)" clip-path="url(#clipPath2370)"><path d="m0 0h1.28v-4.208h0.752v5.6h-0.528c-0.08-0.608-0.664-1-1.336-1h-0.168zm5.92-4.376c0.416 0 1.96 0.096 1.96 2.968s-1.544 2.968-1.96 2.968-1.96-0.096-1.96-2.968 1.544-2.968 1.96-2.968m0 0.632c-0.904 0-1.216 1.064-1.216 2.336s0.312 2.336 1.216 2.336 1.216-1.064 1.216-2.336-0.312-2.336-1.216-2.336m4.64-0.632c0.416 0 1.96 0.096 1.96 2.968s-1.544 2.968-1.96 2.968-1.96-0.096-1.96-2.968 1.544-2.968 1.96-2.968m0 0.632c-0.904 0-1.216 1.064-1.216 2.336s0.312 2.336 1.216 2.336 1.216-1.064 1.216-2.336-0.312-2.336-1.216-2.336" fill="#777"/></g><g transform="matrix(1.3333 0 0 -1.3333 306.1 242.38)" clip-path="url(#clipPath2366)"><path d="m0 0v-20.625" fill="#777" stroke="#777" stroke-width=".5"/></g><g transform="matrix(1.3333 0 0 -1.3333 309.62 269.32)" clip-path="url(#clipPath2362)"><path d="m0 0-2.635-4.79-2.635 4.79z" fill="#777" fill-rule="evenodd"/></g></g><path transform="matrix(1.3333 0 0 -1.3333 72.337 879.57)" d="m366.44 476.66h28.284v18.357h-28.284z" clip-path="url(#clipPath2354)" fill="#c9c9c9" fill-rule="evenodd" stroke="#777" stroke-linejoin="round" stroke-miterlimit="14.336" stroke-width=".5"/><g transform="matrix(1.3333 0 0 -1.3333 571.58 229.37)" clip-path="url(#clipPath2350)"><path d="m0 0h1.28v-4.208h0.752v5.6h-0.528c-0.08-0.608-0.664-1-1.336-1h-0.168zm5.92-4.376c0.416 0 1.96 0.096 1.96 2.968s-1.544 2.968-1.96 2.968-1.96-0.096-1.96-2.968 1.544-2.968 1.96-2.968m0 0.632c-0.904 0-1.216 1.064-1.216 2.336s0.312 2.336 1.216 2.336 1.216-1.064 1.216-2.336-0.312-2.336-1.216-2.336m2.688 0.968c0.064-0.632 0.44-1.6 1.888-1.6 1.392 0 2.008 0.872 2.008 1.992 0 1.192-0.72 1.912-1.752 1.912-0.512 0-0.912-0.12-1.264-0.424l0.224 1.656h2.472v0.632h-3.024l-0.392-2.952h0.704c0.192 0.32 0.728 0.488 1.096 0.488 0.608 0 1.232-0.328 1.232-1.32 0-1.312-0.928-1.384-1.304-1.384-0.864 0-1.104 0.632-1.152 1z" fill="#777"/></g><g transform="matrix(1.3333 0 0 -1.3333 571.58 284.96)" clip-path="url(#clipPath2346)" fill="#777"><path d="m0 0h1.28v-4.208h0.752v5.6h-0.528c-0.08-0.608-0.664-1-1.336-1h-0.168zm5.92-4.376c0.416 0 1.96 0.096 1.96 2.968s-1.544 2.968-1.96 2.968-1.96-0.096-1.96-2.968 1.544-2.968 1.96-2.968m0 0.632c-0.904 0-1.216 1.064-1.216 2.336s0.312 2.336 1.216 2.336 1.216-1.064 1.216-2.336-0.312-2.336-1.216-2.336m2.688 0.968c0.064-0.632 0.44-1.6 1.888-1.6 1.392 0 2.008 0.872 2.008 1.992 0 1.192-0.72 1.912-1.752 1.912-0.512 0-0.912-0.12-1.264-0.424l0.224 1.656h2.472v0.632h-3.024l-0.392-2.952h0.704c0.192 0.32 0.728 0.488 1.096 0.488 0.608 0 1.232-0.328 1.232-1.32 0-1.312-0.928-1.384-1.304-1.384-0.864 0-1.104 0.632-1.152 1z" fill="#777"/></g><g transform="matrix(1.3333 0 0 -1.3333 579.23 279.97)" clip-path="url(#clipPath2342)"><path d="m0 0v20.411" fill="none" stroke="#777" stroke-width=".5"/></g><g fill="#777"><g transform="matrix(1.3333 0 0 -1.3333 575.72 253.31)" clip-path="url(#clipPath2338)"><path d="M 0,0 2.635,4.79 5.27,0 Z" fill="#777" fill-rule="evenodd"/></g><g transform="matrix(1.3333 0 0 -1.3333 432.31 229.37)" clip-path="url(#clipPath2330)"><path d="m0 0h1.28v-4.208h0.752v5.6h-0.528c-0.08-0.608-0.664-1-1.336-1h-0.168zm5.92-4.376c0.416 0 1.96 0.096 1.96 2.968s-1.544 2.968-1.96 2.968-1.96-0.096-1.96-2.968 1.544-2.968 1.96-2.968m0 0.632c-0.904 0-1.216 1.064-1.216 2.336s0.312 2.336 1.216 2.336 1.216-1.064 1.216-2.336-0.312-2.336-1.216-2.336m4.64-0.632c0.416 0 1.96 0.096 1.96 2.968s-1.544 2.968-1.96 2.968-1.96-0.096-1.96-2.968 1.544-2.968 1.96-2.968m0 0.632c-0.904 0-1.216 1.064-1.216 2.336s0.312 2.336 1.216 2.336 1.216-1.064 1.216-2.336-0.312-2.336-1.216-2.336" fill="#777"/></g><g transform="matrix(1.3333 0 0 -1.3333 432.32 284.96)" clip-path="url(#clipPath2326)"><path d="m0 0h1.28v-4.208h0.752v5.6h-0.528c-0.08-0.608-0.664-1-1.336-1h-0.168zm5.92-4.376c0.416 0 1.96 0.096 1.96 2.968s-1.544 2.968-1.96 2.968-1.96-0.096-1.96-2.968 1.544-2.968 1.96-2.968m0 0.632c-0.904 0-1.216 1.064-1.216 2.336s0.312 2.336 1.216 2.336 1.216-1.064 1.216-2.336-0.312-2.336-1.216-2.336m2.688 0.968c0.064-0.632 0.44-1.6 1.888-1.6 1.392 0 2.008 0.872 2.008 1.992 0 1.192-0.72 1.912-1.752 1.912-0.512 0-0.912-0.12-1.264-0.424l0.224 1.656h2.472v0.632h-3.024l-0.392-2.952h0.704c0.192 0.32 0.728 0.488 1.096 0.488 0.608 0 1.232-0.328 1.232-1.32 0-1.312-0.928-1.384-1.304-1.384-0.864 0-1.104 0.632-1.152 1z" fill="#777"/></g></g><g font-size="12px"><text x="368.34222" y="100.84501" fill="#767676" stroke="#8e8e8e" xml:space="preserve"><tspan x="368.34222" y="100.84501" fill="#777777" font-size="12px" stroke="none">Виконання</tspan></text><text x="121.72836" y="290.7807" fill="#767676" stroke="#8e8e8e" xml:space="preserve"><tspan x="121.72836" y="290.7807" fill="#777777" font-size="12px" stroke="none">Потік 2</tspan></text><text x="120.86255" y="180.43074" fill="#767676" stroke="#8e8e8e" xml:space="preserve"><tspan x="120.86255" y="180.43074" fill="#777777" font-size="12px" stroke="none">Потік 1</tspan></text><text x="403.40381" y="46.489258" fill="#777777" font-family="sans-serif" font-weight="bold" text-anchor="middle" xml:space="preserve"><tspan x="403.40381" y="46.489258" text-align="center">Можлива проблема з двома потоками виконання, які намагаються</tspan><tspan x="403.40381" y="61.489258" text-align="center">додати число до розділеної змінної sum. Результат дорівнює 105</tspan><tspan x="403.40381" y="76.489258" text-align="center">замість 108, як очікується</tspan></text><text x="327.70654" y="343.44934" fill="#767676" stroke="#8e8e8e" xml:space="preserve"><tspan x="327.70654" y="343.44934" fill="#777777" font-size="12px" stroke="none">Потік 1: sum = sum + 3;</tspan></text><text x="582.47192" y="276.08051" fill="#767676" stroke="#8e8e8e" xml:space="preserve"><tspan x="582.47192" y="276.08051" fill="#777777" font-size="12px" stroke="none">Запис</tspan></text><text x="255.08804" y="264.14694" fill="#767676" stroke="#8e8e8e" xml:space="preserve"><tspan x="255.08804" y="264.14694" fill="#777777" font-size="12px" stroke="none">Читання</tspan></text><text x="503.65634" y="209.20139" fill="#767676" stroke="#8e8e8e" xml:space="preserve"><tspan x="503.65634" y="209.20139" fill="#777777" font-size="12px" stroke="none">Запис</tspan></text><text x="202.16652" y="205.05829" fill="#767676" stroke="#8e8e8e" xml:space="preserve"><tspan x="202.16652" y="205.05829" fill="#777777" font-size="12px" stroke="none">Читання</tspan></text><text x="332.66473" y="209.78989" fill="#767676" stroke="#8e8e8e" xml:space="preserve"><tspan x="332.66473" y="209.78989" fill="#777777" font-size="12px" stroke="none">Додати (3)</tspan></text><text x="405.78644" y="275.9346" fill="#767676" stroke="#8e8e8e" xml:space="preserve"><tspan x="405.78644" y="275.9346" fill="#777777" font-size="12px" stroke="none">Додати (5)</tspan></text><text x="327.70654" y="357.44934" fill="#767676" stroke="#8e8e8e" xml:space="preserve"><tspan x="327.70654" y="357.44934" fill="#777777" font-size="12px" stroke="none">Потік 2: sum = sum + 5;</tspan></text></g></g></svg>
